# xmcd
#
# Track frame offsets: 
#        150
#        24662
#        42067
#        64887
#        84400
#        107760
#        131557
#        154675
#        168407
#        193925
#        214182
#        235927
#        258437
#        276202
#        302407
#        325802
#
# Disc length: 4573 seconds
#
# Revision: 4
# Processed by: cddbd v1.5.1PL0 Copyright (c) Steve Scherf et al.
# Submitted via: ExactAudioCopy v0.95a4
#
DISCID=dc11db10
DTITLE=Pete Rock and CL Smooth - The Main Ingredient
DYEAR=1994
DGENRE=Hip-Hop
TTITLE0=In The House
TTITLE1=Carmel City
TTITLE2=I Get Physical
TTITLE3=Sun Won't Come Out
TTITLE4=I Got A Love
TTITLE5=Escape
TTITLE6=The Main Ingredient
TTITLE7=Worldwide
TTITLE8=All The Places
TTITLE9=Tell Me
TTITLE10=Take You There
TTITLE11=Searching
TTITLE12=Check It Out
TTITLE13=In The Flesh
TTITLE14=It's On You
TTITLE15=Get On The Mic
EXTD=
EXTT0=
EXTT1=
EXTT2=
EXTT3=
EXTT4=
EXTT5=
EXTT6=
EXTT7=
EXTT8=
EXTT9=
EXTT10=
EXTT11=
EXTT12=
EXTT13=
EXTT14=
EXTT15=
PLAYORDER=
